<?xml version="1.0" standalone="no"?>
<!DOCTYPE svg PUBLIC "-//W3C//DTD SVG 20010904//EN"
 "http://www.w3.org/TR/2001/REC-SVG-20010904/DTD/svg10.dtd">
<svg version="1.0" xmlns="http://www.w3.org/2000/svg"
 width="500.000000pt" height="500.000000pt" viewBox="0 0 500.000000 500.000000"
 preserveAspectRatio="xMidYMid meet">
<metadata>
Created by potrace 1.16, written by Peter Selinger 2001-2019
</metadata>
<g transform="translate(0.000000,500.000000) scale(0.100000,-0.100000)"
fill="#000000" stroke="none">
<path d="M2252 4888 c-39 -89 -141 -324 -204 -473 -39 -91 -69 -122 -125 -131
-38 -6 -46 -11 -59 -43 -8 -20 -33 -57 -55 -83 -41 -49 -49 -86 -24 -112 8 -8
15 -32 15 -56 0 -62 57 -187 107 -237 33 -31 43 -49 43 -72 0 -51 66 -64 88
-18 10 22 11 22 11 -3 1 -14 8 -135 16 -270 24 -407 24 -404 -3 -408 -24 -4
-58 18 -152 100 -70 59 -137 89 -214 95 -67 6 -52 10 -481 -124 -132 -41 -249
-75 -260 -77 -39 -6 -105 -29 -105 -38 0 -4 3 -8 8 -8 18 0 260 67 504 140
283 85 344 94 413 65 34 -14 205 -143 205 -155 0 -3 -51 -16 -112 -29 -62 -12
-147 -34 -188 -48 -85 -28 -237 -99 -291 -135 -79 -55 -378 -78 -469 -37 -25
11 -57 31 -71 45 l-26 25 -6 -28 c-3 -15 -5 -28 -4 -28 22 -6 143 -71 160 -85
12 -10 31 -26 42 -34 22 -16 31 -11 -129 -79 -74 -31 -107 -57 -74 -57 13 0
143 53 216 87 31 15 36 15 83 -8 28 -12 52 -26 55 -30 2 -4 -26 -26 -63 -49
-83 -52 -113 -78 -113 -99 1 -14 2 -13 11 2 5 9 16 17 23 17 7 0 50 25 97 55
72 48 87 54 107 45 13 -5 36 -10 52 -10 15 0 35 -3 44 -6 22 -9 20 -51 -3 -64
-11 -5 -25 -16 -33 -23 -7 -7 -82 -61 -165 -121 -84 -59 -153 -115 -153 -123
0 -27 8 -21 287 184 47 35 86 63 87 63 2 0 6 -32 10 -71 3 -39 17 -128 31
-197 14 -70 25 -132 25 -138 0 -28 -186 -73 -252 -60 -44 8 -49 25 -14 46 13
8 67 55 120 103 73 68 96 95 96 114 0 23 -7 19 -70 -45 -71 -71 -173 -162
-182 -162 -3 0 -26 -9 -52 -21 -53 -23 -54 -47 0 -24 33 13 35 13 59 -13 22
-23 32 -27 83 -25 34 0 89 12 133 27 41 15 77 28 82 29 4 1 22 -35 41 -81 73
-179 229 -383 393 -514 44 -35 53 -48 53 -74 0 -52 12 -124 21 -124 4 0 9 29
11 65 l3 65 45 -30 c25 -17 64 -40 88 -51 49 -24 46 -30 -17 -48 -24 -7 -40
-16 -35 -21 15 -14 67 -14 111 0 53 16 77 8 67 -22 -6 -22 -6 -22 12 -7 27 23
55 31 68 20 16 -13 47 -15 80 -6 21 6 38 3 60 -9 29 -15 34 -15 84 3 48 18 56
18 88 5 42 -18 141 -16 159 3 8 7 17 40 21 72 6 58 8 60 58 92 72 46 263 241
319 326 25 39 61 101 78 136 30 60 35 65 70 71 34 6 71 36 81 68 3 7 33 0 84
-21 102 -41 189 -51 233 -25 17 10 34 27 37 37 4 13 11 16 22 11 32 -13 62
-16 62 -6 0 5 -22 18 -49 28 -61 21 -142 92 -273 238 l-99 110 3 55 c3 50 6
57 30 65 23 8 33 5 70 -26 24 -19 106 -81 183 -137 110 -80 141 -98 144 -84 4
19 -1 23 -114 103 -135 96 -226 171 -222 183 3 11 30 23 113 47 39 12 42 11
106 -31 36 -24 74 -49 83 -54 10 -6 18 -23 18 -38 0 -22 2 -25 14 -16 10 9 11
15 3 23 -25 25 -6 24 28 -2 20 -16 63 -44 95 -61 51 -29 57 -30 57 -14 0 20
-68 66 -153 103 -27 12 -51 28 -53 35 -3 8 -26 24 -50 36 -44 21 -74 44 -74
57 0 4 20 20 45 36 l45 28 118 -46 c126 -50 142 -53 142 -32 0 8 -45 30 -110
56 -60 23 -110 45 -110 50 0 12 90 89 145 123 27 18 51 40 53 50 4 21 -21 23
-39 1 -23 -28 -107 -64 -178 -76 -60 -10 -91 -9 -238 11 -147 20 -186 29 -313
76 -80 29 -192 65 -250 80 -58 15 -109 31 -113 35 -10 9 181 188 226 212 65
35 187 15 614 -103 54 -15 221 -49 241 -49 1 0 2 5 2 10 0 6 -9 10 -21 10 -32
0 -56 17 -63 44 -7 29 -47 99 -52 93 -3 -2 5 -26 16 -52 11 -26 18 -50 16 -53
-9 -8 -56 8 -56 19 0 6 -11 25 -24 42 -13 18 -34 53 -46 80 -13 26 -27 47 -32
47 -4 0 -8 -2 -8 -5 0 -12 35 -75 41 -75 4 0 10 -13 14 -30 4 -17 11 -30 16
-30 5 0 9 -7 9 -16 0 -12 -6 -15 -22 -9 -13 3 -41 10 -63 15 -61 13 -95 28
-95 42 0 7 -10 24 -21 38 l-20 25 16 -33 c9 -19 14 -36 11 -39 -3 -3 -77 14
-163 38 -257 71 -304 60 -480 -114 l-102 -100 -138 25 -138 24 0 55 c1 100 26
723 31 765 4 37 9 42 35 48 19 4 33 14 39 31 8 21 16 25 50 25 23 0 51 5 63
12 12 7 48 15 80 19 33 4 67 15 77 24 17 15 22 16 36 4 20 -17 153 -30 177
-18 22 12 22 35 -3 95 -14 32 -33 57 -55 72 -24 15 -35 30 -35 46 0 13 -9 35
-20 48 -10 14 -16 28 -12 32 3 4 -1 4 -11 0 -25 -9 -67 22 -67 50 0 28 -61 86
-90 86 -10 0 -22 9 -25 21 -4 11 -16 24 -28 28 -18 7 -21 15 -19 62 2 44 -3
63 -28 106 -17 30 -48 65 -70 79 -35 23 -42 25 -74 14 -19 -6 -49 -25 -65 -43
-19 -18 -34 -27 -39 -21 -5 5 -30 65 -57 134 -82 213 -91 230 -118 230 -20 0
-29 -13 -65 -92z m-43 -258 c-106 -264 -130 -312 -146 -297 -10 11 19 87 109
290 44 99 86 198 94 220 8 23 22 53 32 67 42 64 15 -25 -89 -280z m161 184
c19 -43 50 -123 78 -206 l15 -47 -36 -45 c-35 -43 -40 -45 -105 -51 -37 -4
-73 -12 -79 -17 -7 -6 -13 -28 -13 -49 0 -32 -4 -40 -24 -45 -13 -3 -37 -4
-53 -2 l-31 3 48 125 c65 167 153 381 165 400 8 13 10 12 13 -5 2 -11 12 -39
22 -61z m295 -188 c13 -13 33 -43 45 -67 19 -36 21 -53 16 -101 -6 -58 -6 -59
23 -64 20 -4 31 -14 35 -30 4 -13 14 -24 23 -24 8 0 31 -9 49 -21 25 -15 34
-28 35 -47 0 -20 13 -38 53 -69 35 -28 55 -51 59 -71 4 -17 19 -38 40 -52 19
-13 42 -40 51 -60 21 -49 20 -57 -5 -34 -16 14 -23 15 -26 7 -7 -20 -69 -15
-105 7 -42 25 -46 25 -60 -5 -10 -22 -18 -25 -60 -25 -30 0 -59 -7 -75 -17
-17 -11 -46 -18 -77 -18 -46 0 -52 -3 -64 -28 -12 -24 -18 -28 -41 -23 -14 4
-56 9 -94 13 -63 5 -68 8 -88 39 -28 46 -47 54 -88 40 -41 -13 -71 -64 -71
-117 0 -35 -2 -37 -37 -41 -21 -3 -45 0 -54 5 -11 7 -32 4 -70 -11 -54 -20
-54 -20 -60 -70 -4 -27 -10 -55 -13 -61 -11 -18 -26 -2 -26 28 0 18 -12 38
-39 64 -21 20 -46 53 -55 74 -9 21 -23 51 -32 67 -8 16 -17 56 -21 90 -3 36
-12 64 -20 69 -11 7 -6 17 23 49 20 22 45 60 56 84 16 37 23 44 47 44 16 0 41
10 56 22 21 17 31 19 45 10 13 -8 21 -7 33 5 8 9 45 18 86 23 88 10 115 29
108 77 -5 30 -3 33 21 34 15 0 50 6 78 12 48 11 56 18 127 104 102 122 126
135 172 89z m-191 -762 l69 -7 -7 -226 c-8 -269 -25 -643 -29 -648 -2 -1 -82
1 -178 5 l-174 7 -19 393 c-11 216 -17 395 -14 398 4 3 14 0 25 -6 12 -8 34
-9 68 -3 l50 8 5 50 c6 56 22 89 48 104 14 8 24 2 52 -29 32 -36 40 -40 104
-46z m-352 -481 c10 -207 16 -384 13 -392 -15 -38 -24 22 -34 229 -7 124 -16
296 -22 383 -5 87 -7 163 -3 169 20 33 29 -39 46 -389z m-390 -673 c16 -38 18
-40 62 -40 25 0 46 -4 46 -9 0 -5 -16 -19 -35 -31 -35 -22 -37 -30 -19 -87 5
-18 -22 -16 -52 4 -26 17 -28 17 -98 -12 -18 -8 -19 -5 -12 34 6 38 4 44 -24
67 -16 14 -30 30 -30 35 0 5 20 9 45 9 42 0 47 3 62 35 9 19 21 35 27 35 6 0
19 -18 28 -40z m1790 -15 c54 -8 141 -15 194 -15 117 0 117 0 -35 -101 l-106
-71 -79 5 c-43 3 -82 9 -86 14 -4 4 -10 50 -13 101 -5 84 -4 92 11 88 9 -3 61
-12 114 -21z m-2176 -22 c-3 -21 -6 -62 -6 -90 l0 -53 -42 0 c-44 0 -138 42
-245 109 l-48 31 55 0 c59 0 239 25 248 34 3 3 14 6 25 6 17 0 19 -5 13 -37z
m2010 -391 c-9 -59 -24 -136 -33 -172 l-18 -65 -105 4 c-238 7 -599 27 -605
32 -3 3 -6 78 -8 165 l-2 159 388 3 387 2 2 38 c1 32 2 31 5 -11 2 -26 -3 -96
-11 -155z m-1358 132 l182 -6 0 -87 c0 -47 -3 -123 -7 -168 l-6 -83 -356 0
c-350 0 -357 0 -374 21 -10 11 -16 23 -13 27 3 3 2 10 -4 17 -11 13 -40 172
-40 219 0 17 6 40 14 51 13 19 24 20 217 18 112 -2 286 -6 387 -9z m1537 -334
c44 -47 103 -104 130 -127 41 -34 48 -44 37 -55 -20 -20 -155 -17 -226 6 -61
19 -130 72 -141 107 -4 10 3 61 15 111 31 135 26 128 67 83 20 -22 73 -78 118
-125z m-1377 -436 c9 -2 12 -49 12 -188 0 -101 -3 -191 -6 -200 -13 -35 -81
-12 -199 67 -103 70 -193 147 -255 219 -56 64 -70 95 -53 112 7 6 476 -2 501
-10z m746 -5 c191 -1 201 -6 155 -69 -84 -117 -222 -231 -367 -304 -121 -61
-117 -67 -117 169 l0 200 75 6 c41 3 81 4 87 3 7 -2 82 -4 167 -5z"/>
<path d="M4430 2617 c0 -13 290 -127 323 -127 10 0 28 -6 40 -14 19 -12 190
-76 204 -76 2 0 3 7 1 16 -3 17 -166 84 -203 84 -12 0 -25 4 -30 9 -12 12
-302 121 -321 121 -8 0 -14 -6 -14 -13z"/>
<path d="M4908 2061 c-64 -53 -142 -85 -208 -85 -35 0 -70 12 -159 57 -63 31
-116 57 -117 57 -1 0 -5 -7 -8 -15 -4 -12 17 -27 86 -61 51 -24 96 -48 101
-53 4 -4 -23 -23 -60 -41 -50 -25 -87 -35 -140 -40 -39 -3 -75 -9 -80 -14 -12
-13 137 1 184 18 23 8 58 26 80 39 29 19 56 26 118 30 90 6 138 23 207 74 40
29 68 68 56 77 -1 2 -29 -18 -60 -43z"/>
<path d="M250 2019 c-128 -66 -138 -70 -192 -66 -44 2 -58 0 -58 -11 0 -10 18
-13 83 -11 69 2 90 -2 130 -21 26 -13 47 -27 47 -31 0 -4 -42 -83 -94 -176
-52 -92 -92 -171 -90 -175 8 -12 365 -200 371 -195 3 3 2 10 -1 15 -6 10 -142
93 -241 147 -27 15 -53 32 -57 39 -4 6 12 47 36 91 149 275 122 245 217 245
44 0 79 3 79 8 0 4 -39 8 -88 8 -68 1 -100 7 -145 26 -32 14 -57 29 -55 34 1
5 52 34 112 65 105 53 139 80 99 78 -10 -1 -79 -32 -153 -70z"/>
<path d="M4325 1810 c-7 -30 2 -51 75 -175 72 -124 81 -147 65 -165 -8 -9 -67
-48 -131 -86 -63 -38 -125 -78 -136 -88 -33 -31 -4 -31 49 0 64 37 297 176
302 180 2 2 -21 45 -51 96 -30 51 -76 130 -103 176 -27 46 -52 85 -56 88 -4 2
-10 -9 -14 -26z"/>
<path d="M2209 553 c-1 -5 0 -89 1 -188 2 -210 13 -252 74 -282 31 -14 40 -15
76 -3 53 17 81 52 116 140 l27 71 -17 55 c-11 36 -17 81 -15 131 2 84 -8 100
-31 50 -21 -45 -72 -70 -134 -63 -60 7 -76 19 -76 62 0 19 -4 34 -10 34 -5 0
-10 -3 -11 -7z m231 -123 c0 -52 -23 -96 -60 -115 -35 -18 -114 -20 -127 -2
-17 20 -24 66 -17 103 6 31 9 33 33 27 42 -11 95 -7 127 10 41 23 44 22 44
-23z m22 -115 c27 -60 -34 -158 -117 -185 -62 -20 -105 24 -105 109 l0 38 48
-5 c53 -5 93 10 126 47 25 27 34 26 48 -4z"/>
</g>
</svg>
